<?xml version="1.0" encoding="UTF-8"?>
<svg xmlns="http://www.w3.org/2000/svg" xmlns:xlink="http://www.w3.org/1999/xlink" width="80px" height="80px" viewBox="0 0 80 80" version="1.1">
<g id="surface1">
<path style=" stroke:none;fill-rule:nonzero;fill:rgb(0%,0%,0%);fill-opacity:1;" d="M 29.683594 5.65625 C 26.402344 6.308594 22.890625 7.464844 20.199219 8.777344 C 19.3125 9.203125 19.050781 9.371094 19.140625 9.429688 C 19.167969 9.449219 19.648438 9.246094 20.21875 8.972656 C 22.09375 8.066406 24.210938 7.257812 26.3125 6.644531 C 27.328125 6.347656 30.40625 5.625 30.660156 5.625 C 30.734375 5.625 30.796875 5.582031 30.796875 5.53125 C 30.796875 5.480469 30.789062 5.4375 30.777344 5.4375 C 30.761719 5.445312 30.273438 5.539062 29.683594 5.65625 Z M 29.683594 5.65625 "/>
<path style=" stroke:none;fill-rule:nonzero;fill:rgb(0%,0%,0%);fill-opacity:1;" d="M 36.820312 6.285156 C 27.390625 6.667969 18.859375 9.96875 13.585938 15.265625 C 11.339844 17.527344 9.753906 20.109375 8.976562 22.78125 C 8.550781 24.238281 8.476562 24.859375 8.476562 26.792969 C 8.476562 28.726562 8.550781 29.34375 8.976562 30.804688 C 9.917969 34.042969 12.011719 37.078125 15.101562 39.710938 C 16.042969 40.511719 18.289062 42.09375 19.429688 42.769531 C 23.777344 45.316406 28.949219 46.921875 34.738281 47.527344 C 36.558594 47.71875 40.273438 47.769531 42.210938 47.625 C 52.347656 46.871094 61.125 42.78125 65.804688 36.625 C 67.5 34.40625 68.476562 32.226562 68.984375 29.574219 C 69.203125 28.460938 69.203125 25.933594 68.996094 24.785156 C 68.234375 20.65625 65.90625 17.019531 62.027344 13.875 C 60.480469 12.625 57.652344 10.867188 55.679688 9.925781 C 50.207031 7.335938 43.378906 6.011719 36.820312 6.285156 Z M 39.421875 9.796875 C 39.5 10.878906 39.566406 11.773438 39.554688 11.78125 C 39.546875 11.785156 39.285156 11.804688 38.96875 11.816406 L 38.386719 11.839844 L 37.472656 10.945312 C 36.976562 10.453125 36.402344 9.890625 36.203125 9.703125 L 35.851562 9.363281 L 35.90625 10.257812 C 35.941406 10.753906 35.988281 11.328125 36.015625 11.53125 L 36.070312 11.910156 L 35.542969 11.941406 C 35.246094 11.960938 34.992188 11.964844 34.972656 11.953125 C 34.9375 11.933594 34.601562 8.015625 34.636719 7.996094 C 34.636719 7.992188 34.898438 7.972656 35.207031 7.953125 L 35.769531 7.921875 L 37.011719 9.152344 C 37.691406 9.832031 38.269531 10.394531 38.304688 10.40625 C 38.351562 10.433594 38.316406 9.683594 38.199219 8.332031 L 38.152344 7.855469 L 38.523438 7.832031 C 39.339844 7.78125 39.25 7.570312 39.421875 9.796875 Z M 43.640625 8.21875 C 44.773438 8.363281 45.761719 8.484375 45.84375 8.503906 C 45.96875 8.527344 45.976562 8.578125 45.914062 8.820312 C 45.871094 8.972656 45.816406 9.121094 45.789062 9.132812 C 45.761719 9.152344 45.390625 9.121094 44.945312 9.074219 C 44.511719 9.015625 44.148438 8.988281 44.128906 8.992188 C 44.121094 9 43.921875 9.726562 43.6875 10.605469 C 43.460938 11.484375 43.261719 12.210938 43.25 12.226562 C 43.1875 12.273438 42.121094 12.089844 42.121094 12.035156 C 42.121094 12.003906 42.300781 11.28125 42.527344 10.425781 C 42.753906 9.578125 42.917969 8.867188 42.898438 8.855469 C 42.871094 8.839844 42.535156 8.78125 42.148438 8.738281 C 41.757812 8.691406 41.394531 8.640625 41.339844 8.621094 C 41.214844 8.597656 41.367188 7.972656 41.503906 7.972656 C 41.550781 7.972656 42.519531 8.085938 43.640625 8.21875 Z M 32.375 10.285156 C 33.398438 11.199219 34.238281 11.972656 34.238281 11.996094 C 34.238281 12.039062 34.011719 12.09375 33.324219 12.207031 C 33.105469 12.242188 33.035156 12.207031 32.664062 11.871094 C 32.425781 11.664062 32.21875 11.496094 32.191406 11.496094 C 32.074219 11.496094 30.109375 11.886719 30.054688 11.914062 C 30.019531 11.941406 29.964844 12.167969 29.917969 12.421875 L 29.847656 12.886719 L 29.285156 12.992188 L 28.714844 13.089844 L 28.714844 12.898438 C 28.714844 12.789062 28.839844 11.878906 28.984375 10.878906 C 29.128906 9.875 29.257812 9.003906 29.257812 8.949219 C 29.257812 8.875 29.421875 8.808594 29.828125 8.71875 C 30.136719 8.660156 30.417969 8.609375 30.453125 8.609375 C 30.480469 8.617188 31.351562 9.371094 32.375 10.285156 Z M 48.070312 9.003906 C 48.332031 9.0625 48.550781 9.132812 48.550781 9.171875 C 48.550781 9.269531 46.820312 12.816406 46.75 12.875 C 46.683594 12.917969 45.851562 12.757812 45.707031 12.671875 C 45.652344 12.632812 47.265625 9.160156 47.4375 8.941406 C 47.492188 8.882812 47.519531 8.886719 48.070312 9.003906 Z M 52.328125 10.179688 C 52.617188 10.273438 52.871094 10.359375 52.890625 10.363281 C 52.933594 10.382812 52.609375 14.605469 52.5625 14.640625 C 52.546875 14.660156 52.28125 14.585938 51.984375 14.488281 L 51.429688 14.308594 L 51.46875 13.820312 L 51.496094 13.332031 L 50.460938 12.996094 L 49.421875 12.664062 L 48.902344 13.015625 L 48.398438 13.363281 L 47.824219 13.164062 L 47.265625 12.972656 L 48.695312 12.035156 C 49.492188 11.519531 50.507812 10.851562 50.949219 10.554688 C 51.402344 10.257812 51.773438 10.011719 51.785156 10.011719 C 51.800781 10.011719 52.046875 10.085938 52.328125 10.179688 Z M 25.152344 10.414062 C 25.804688 10.597656 26.175781 10.984375 26.175781 11.464844 C 26.175781 11.78125 26.085938 11.941406 25.75 12.183594 L 25.535156 12.34375 L 25.996094 12.378906 C 26.441406 12.417969 28.53125 13.011719 28.53125 13.097656 C 28.53125 13.140625 27.507812 13.597656 27.410156 13.597656 C 27.375 13.597656 26.820312 13.441406 26.175781 13.257812 C 25.535156 13.070312 24.925781 12.917969 24.820312 12.917969 C 24.511719 12.917969 23.894531 13.160156 23.949219 13.257812 C 23.976562 13.304688 24.265625 13.628906 24.59375 13.972656 C 24.917969 14.320312 25.179688 14.605469 25.164062 14.617188 C 24.710938 14.839844 24.257812 15.019531 24.195312 14.988281 C 24.074219 14.945312 21.050781 11.730469 21.078125 11.6875 C 21.113281 11.621094 23.40625 10.625 23.867188 10.46875 C 24.394531 10.296875 24.699219 10.285156 25.152344 10.414062 Z M 59.847656 13.738281 C 61.058594 14.59375 61.1875 14.746094 61.125 15.347656 C 61.078125 15.851562 60.777344 16.25 60.089844 16.730469 C 59.203125 17.347656 58.289062 17.578125 57.398438 17.402344 C 56.964844 17.316406 56.738281 17.199219 55.761719 16.582031 C 55.136719 16.1875 54.621094 15.835938 54.621094 15.796875 C 54.621094 15.730469 58.605469 12.980469 58.703125 12.980469 C 58.730469 12.980469 59.25 13.324219 59.847656 13.738281 Z M 42.300781 13.375 C 46.566406 13.875 50.273438 15.140625 53.371094 17.167969 C 56.902344 19.488281 59.023438 22.476562 59.519531 25.867188 C 59.71875 27.21875 59.484375 29.257812 59.011719 30.390625 L 58.867188 30.71875 L 58.242188 30.71875 C 57.734375 30.71875 57.609375 30.734375 57.609375 30.808594 C 57.609375 31.03125 56.828125 32.472656 56.339844 33.160156 C 55.84375 33.863281 55.046875 34.753906 54.382812 35.347656 C 54.210938 35.496094 54.074219 35.644531 54.074219 35.667969 C 54.074219 35.691406 54.347656 35.722656 54.683594 35.734375 L 55.28125 35.753906 L 54.738281 36.21875 C 53.96875 36.871094 52.382812 37.90625 51.3125 38.449219 C 48.542969 39.851562 45.488281 40.710938 41.9375 41.082031 C 40.507812 41.230469 37.664062 41.230469 36.230469 41.082031 C 31.730469 40.605469 27.890625 39.308594 24.855469 37.226562 C 24.039062 36.664062 23.007812 35.847656 23.007812 35.761719 C 23.007812 35.742188 23.398438 35.722656 23.867188 35.722656 C 24.339844 35.722656 24.726562 35.710938 24.726562 35.691406 C 24.726562 35.671875 24.429688 35.390625 24.058594 35.050781 C 22.84375 33.9375 21.757812 32.550781 21.105469 31.285156 L 20.804688 30.71875 L 19.664062 30.71875 L 19.882812 31.253906 C 20.136719 31.910156 20.535156 32.65625 20.96875 33.292969 C 21.148438 33.554688 21.277344 33.792969 21.257812 33.824219 C 21.214844 33.929688 20.273438 32.507812 19.78125 31.574219 C 18.949219 29.992188 18.660156 28.839844 18.660156 27.101562 C 18.660156 24.046875 20.046875 21.234375 22.78125 18.757812 C 26.070312 15.773438 30.960938 13.839844 36.550781 13.320312 C 37.761719 13.203125 41.113281 13.238281 42.300781 13.375 Z M 20.699219 14.617188 C 22.191406 14.980469 23.46875 15.296875 23.53125 15.308594 C 23.695312 15.351562 23.667969 15.390625 23.242188 15.71875 L 22.851562 16.011719 L 22.191406 15.847656 L 21.53125 15.679688 L 20.871094 16.167969 C 19.925781 16.867188 19.9375 16.847656 20.316406 17.316406 L 20.644531 17.707031 L 19.792969 18.363281 L 18.371094 16.445312 L 16.9375 14.535156 L 17.355469 14.222656 C 17.589844 14.042969 17.824219 13.914062 17.878906 13.925781 C 17.933594 13.9375 19.203125 14.253906 20.699219 14.617188 Z M 64.726562 18.027344 C 65.273438 18.695312 65.726562 19.277344 65.742188 19.3125 C 65.769531 19.375 64.980469 19.703125 64.917969 19.652344 C 64.882812 19.621094 64.429688 19.078125 63.730469 18.21875 L 63.398438 17.804688 L 62.863281 18.003906 C 62.5625 18.113281 62.320312 18.21875 62.320312 18.246094 C 62.320312 18.277344 62.625 18.671875 63.007812 19.132812 C 63.558594 19.800781 63.675781 19.988281 63.578125 20.035156 C 63.332031 20.148438 62.960938 20.273438 62.878906 20.273438 C 62.824219 20.273438 62.492188 19.902344 62.128906 19.449219 C 61.773438 19.003906 61.457031 18.621094 61.441406 18.601562 C 61.421875 18.589844 61.097656 18.691406 60.734375 18.820312 C 60.246094 19 60.074219 19.089844 60.109375 19.160156 C 60.136719 19.207031 60.480469 19.652344 60.878906 20.140625 C 61.441406 20.828125 61.574219 21.042969 61.484375 21.085938 C 61.25 21.199219 60.878906 21.324219 60.789062 21.324219 C 60.671875 21.324219 58.550781 18.707031 58.660156 18.683594 C 58.703125 18.671875 59.820312 18.246094 61.140625 17.738281 C 62.464844 17.230469 63.585938 16.816406 63.640625 16.8125 C 63.695312 16.8125 64.183594 17.359375 64.726562 18.027344 Z M 15.671875 17.515625 C 15.671875 17.566406 15.625 17.742188 15.570312 17.910156 C 15.472656 18.207031 15.445312 18.21875 15.109375 18.25 C 14.449219 18.3125 14.003906 18.632812 13.894531 19.148438 C 13.824219 19.492188 14.050781 19.917969 14.429688 20.109375 C 15.136719 20.46875 16.097656 20.660156 16.695312 20.554688 C 17.335938 20.453125 17.835938 19.914062 17.84375 19.332031 C 17.84375 18.980469 17.84375 18.972656 17.492188 18.855469 L 17.136719 18.734375 L 16.574219 19.59375 L 16.132812 19.4375 L 15.6875 19.28125 L 16.195312 18.511719 C 16.476562 18.089844 16.738281 17.738281 16.773438 17.738281 C 16.800781 17.738281 17.300781 17.886719 17.871094 18.070312 L 18.914062 18.40625 L 18.976562 18.75 C 19.15625 19.714844 18.351562 20.867188 17.253906 21.230469 C 17.039062 21.304688 16.628906 21.359375 16.230469 21.371094 C 14.230469 21.445312 12.492188 20.273438 12.851562 19.078125 C 13.070312 18.378906 13.640625 17.792969 14.339844 17.558594 C 14.800781 17.402344 15.671875 17.375 15.671875 17.515625 Z M 14.066406 26.207031 C 14.367188 26.476562 14.628906 26.699219 14.65625 26.699219 C 14.691406 26.699219 15.101562 26.621094 15.5625 26.519531 C 16.539062 26.308594 16.53125 26.296875 15.84375 26.976562 L 15.390625 27.429688 L 15.886719 27.910156 C 16.332031 28.332031 16.46875 28.492188 16.367188 28.492188 C 16.351562 28.492188 15.996094 28.425781 15.578125 28.335938 C 15.164062 28.25 14.773438 28.183594 14.699219 28.183594 C 14.636719 28.183594 14.355469 28.394531 14.074219 28.644531 C 13.796875 28.898438 13.53125 29.109375 13.488281 29.109375 C 13.441406 29.109375 13.398438 28.824219 13.386719 28.480469 L 13.359375 27.855469 L 12.601562 27.675781 C 12.175781 27.582031 11.792969 27.476562 11.75 27.449219 C 11.703125 27.417969 12.046875 27.304688 12.535156 27.195312 L 13.40625 26.988281 L 13.40625 26.347656 C 13.40625 26 13.433594 25.710938 13.476562 25.710938 C 13.515625 25.71875 13.777344 25.9375 14.066406 26.207031 Z M 65.125 26.433594 L 65.125 26.996094 L 65.996094 27.195312 C 66.46875 27.304688 66.828125 27.410156 66.800781 27.433594 C 66.765625 27.453125 66.386719 27.558594 65.960938 27.664062 L 65.171875 27.863281 L 65.109375 28.460938 C 65.074219 28.792969 65.027344 29.074219 65 29.089844 C 64.980469 29.109375 64.726562 28.914062 64.449219 28.652344 C 64.15625 28.394531 63.867188 28.183594 63.796875 28.183594 C 63.722656 28.183594 63.316406 28.257812 62.890625 28.34375 C 62.472656 28.429688 62.109375 28.492188 62.09375 28.480469 C 62.066406 28.46875 62.292969 28.226562 62.589844 27.941406 L 63.117188 27.421875 L 62.644531 26.953125 C 62.382812 26.695312 62.136719 26.453125 62.101562 26.410156 C 62.039062 26.335938 62.101562 26.339844 63.359375 26.605469 C 63.613281 26.65625 63.839844 26.699219 63.867188 26.699219 C 63.894531 26.699219 64.15625 26.476562 64.449219 26.207031 C 64.808594 25.871094 65 25.734375 65.054688 25.792969 C 65.089844 25.828125 65.125 26.117188 65.125 26.433594 Z M 62.238281 34.277344 C 63.117188 34.449219 63.886719 34.851562 64.25 35.320312 C 64.527344 35.6875 64.519531 36.265625 64.210938 36.710938 C 63.53125 37.699219 62.164062 38.011719 60.707031 37.507812 C 59.636719 37.136719 58.941406 36.390625 59.101562 35.796875 C 59.25 35.242188 59.875 34.585938 60.453125 34.382812 C 61.050781 34.164062 61.550781 34.140625 62.238281 34.277344 Z M 20.101562 35.5625 C 20.761719 35.796875 21.402344 36.519531 21.414062 37.035156 C 21.414062 37.34375 21.03125 37.824219 20.789062 37.824219 C 20.714844 37.824219 20.542969 37.707031 20.398438 37.558594 L 20.125 37.300781 L 20.308594 37.144531 C 20.617188 36.886719 20.363281 36.371094 19.828125 36.1875 C 19.230469 35.96875 19.085938 36.265625 19.421875 37.046875 C 19.699219 37.730469 19.726562 38.152344 19.476562 38.40625 C 19.203125 38.691406 18.6875 38.875 18.160156 38.875 C 17.398438 38.875 16.792969 38.542969 16.339844 37.855469 C 16.03125 37.398438 16.070312 36.960938 16.429688 36.59375 C 16.773438 36.253906 16.882812 36.25 17.210938 36.519531 L 17.480469 36.761719 L 17.253906 37.058594 C 16.984375 37.433594 17.027344 37.632812 17.480469 37.953125 C 17.898438 38.25 18.296875 38.28125 18.542969 38.035156 C 18.6875 37.878906 18.675781 37.855469 18.476562 37.402344 C 18.160156 36.679688 18.105469 36.414062 18.207031 36.15625 C 18.296875 35.914062 18.667969 35.617188 18.976562 35.53125 C 19.265625 35.453125 19.828125 35.46875 20.101562 35.5625 Z M 56.523438 37.515625 C 56.523438 37.695312 56.230469 37.890625 55.742188 38.039062 C 55.300781 38.171875 55.246094 38.207031 55.273438 38.355469 C 55.289062 38.460938 55.246094 38.542969 55.136719 38.589844 C 54.78125 38.738281 54.527344 38.132812 54.875 37.9375 C 54.953125 37.878906 55.21875 37.78125 55.460938 37.714844 C 55.816406 37.601562 55.886719 37.558594 55.886719 37.417969 C 55.886719 37.324219 55.960938 37.210938 56.042969 37.167969 C 56.175781 37.109375 56.222656 37.121094 56.359375 37.257812 C 56.449219 37.347656 56.523438 37.464844 56.523438 37.515625 Z M 59.675781 38.9375 C 60.679688 39.253906 61.503906 39.53125 61.503906 39.554688 C 61.503906 39.574219 61.339844 39.695312 61.140625 39.832031 L 60.789062 40.066406 L 60.234375 39.902344 C 59.9375 39.808594 59.65625 39.742188 59.609375 39.753906 C 59.574219 39.765625 59.222656 39.96875 58.832031 40.214844 L 58.125 40.660156 L 58.371094 41.042969 L 58.613281 41.433594 L 58.214844 41.699219 L 57.824219 41.972656 L 56.8125 40.273438 C 56.25 39.339844 55.796875 38.542969 55.796875 38.5 C 55.796875 38.460938 55.96875 38.324219 56.175781 38.195312 L 56.566406 37.964844 L 57.199219 38.164062 C 57.546875 38.269531 58.660156 38.621094 59.675781 38.9375 Z M 24.429688 39.195312 L 24.800781 39.460938 L 23.769531 41.15625 C 23.207031 42.082031 22.71875 42.863281 22.691406 42.878906 C 22.664062 42.898438 22.472656 42.800781 22.265625 42.65625 L 21.882812 42.402344 L 22.121094 42.015625 L 22.363281 41.625 L 21.640625 41.132812 L 20.925781 40.644531 L 20.425781 40.808594 C 20.152344 40.902344 19.875 40.976562 19.808594 40.976562 C 19.746094 40.976562 19.539062 40.867188 19.339844 40.730469 L 18.996094 40.488281 L 19.890625 40.203125 C 20.378906 40.050781 21.484375 39.703125 22.328125 39.4375 C 23.179688 39.164062 23.914062 38.941406 23.957031 38.941406 C 24.011719 38.9375 24.222656 39.054688 24.429688 39.195312 Z M 53.351562 40.296875 C 53.523438 40.328125 53.785156 40.425781 53.941406 40.507812 L 54.210938 40.65625 L 53.804688 40.902344 C 53.398438 41.148438 53.398438 41.148438 53.179688 41.03125 C 52.546875 40.691406 51.449219 41.117188 51.449219 41.707031 C 51.449219 42.121094 52.054688 42.867188 52.554688 43.078125 C 53.414062 43.4375 54.410156 43.011719 54.328125 42.324219 L 54.300781 42.0625 L 54.691406 42.007812 C 55.273438 41.929688 55.34375 41.972656 55.34375 42.367188 C 55.34375 42.761719 55.164062 43.097656 54.828125 43.335938 C 54.609375 43.5 54.601562 43.511719 54.765625 43.511719 C 54.863281 43.511719 55.035156 43.554688 55.144531 43.609375 C 55.390625 43.71875 55.417969 44.035156 55.199219 44.246094 C 55.019531 44.417969 54.285156 44.746094 54.066406 44.746094 C 53.914062 44.746094 53.730469 44.546875 53.867188 44.519531 C 53.902344 44.503906 54.101562 44.429688 54.300781 44.355469 C 54.566406 44.257812 54.675781 44.171875 54.691406 44.046875 C 54.71875 43.90625 54.691406 43.882812 54.511719 43.882812 C 54.394531 43.882812 54.203125 43.925781 54.085938 43.980469 C 53.914062 44.066406 53.859375 44.066406 53.804688 44 C 53.757812 43.957031 53.742188 43.898438 53.757812 43.882812 C 53.777344 43.855469 53.503906 43.839844 53.144531 43.84375 C 52.355469 43.84375 51.9375 43.714844 51.367188 43.292969 C 50.117188 42.367188 50.179688 41.101562 51.511719 40.539062 C 52.183594 40.253906 52.746094 40.179688 53.351562 40.296875 Z M 28.277344 41.136719 C 29.210938 41.5 29.980469 41.804688 29.980469 41.824219 C 29.980469 41.835938 29.898438 41.960938 29.800781 42.09375 L 29.609375 42.335938 L 28.941406 42.089844 L 28.269531 41.835938 L 27.917969 42.257812 C 27.726562 42.484375 27.246094 43.054688 26.867188 43.515625 L 26.167969 44.363281 L 25.742188 44.203125 C 25.507812 44.117188 25.308594 44.042969 25.289062 44.03125 C 25.261719 44.015625 26.351562 42.683594 27.328125 41.519531 C 27.347656 41.496094 27.074219 41.367188 26.722656 41.222656 C 26.375 41.085938 26.085938 40.953125 26.085938 40.925781 C 26.085938 40.859375 26.441406 40.480469 26.503906 40.480469 C 26.539062 40.480469 27.335938 40.777344 28.277344 41.136719 Z M 31.910156 42.1875 C 32.148438 42.242188 32.335938 42.304688 32.335938 42.328125 C 32.335938 42.453125 30.777344 45.613281 30.714844 45.613281 C 30.488281 45.613281 29.792969 45.402344 29.828125 45.339844 C 29.847656 45.304688 30.199219 44.554688 30.617188 43.675781 C 31.03125 42.804688 31.402344 42.089844 31.429688 42.089844 C 31.46875 42.089844 31.675781 42.132812 31.910156 42.1875 Z M 48.503906 43.574219 L 50.179688 45.023438 L 49.925781 45.09375 C 49.792969 45.136719 49.554688 45.183594 49.402344 45.203125 C 49.140625 45.246094 49.085938 45.222656 48.769531 44.9375 C 48.570312 44.765625 48.351562 44.628906 48.277344 44.628906 C 48.207031 44.628906 47.753906 44.703125 47.28125 44.800781 L 46.421875 44.980469 L 46.367188 45.390625 C 46.339844 45.613281 46.304688 45.808594 46.277344 45.820312 C 46.257812 45.835938 46.023438 45.890625 45.769531 45.9375 C 45.191406 46.058594 45.226562 46.265625 45.472656 44.222656 C 45.726562 42.125 45.671875 42.292969 46.175781 42.1875 C 46.414062 42.136719 46.65625 42.101562 46.722656 42.109375 C 46.785156 42.113281 47.589844 42.773438 48.503906 43.574219 Z M 36.015625 42.773438 C 36.984375 42.898438 37.5 43.1875 37.636719 43.707031 L 37.699219 43.941406 L 37.148438 43.941406 C 36.65625 43.941406 36.59375 43.929688 36.59375 43.824219 C 36.59375 43.609375 36.222656 43.378906 35.804688 43.34375 C 35.261719 43.292969 34.875 43.410156 34.875 43.632812 C 34.875 43.839844 35.027344 43.917969 35.914062 44.152344 C 37.175781 44.492188 37.5 44.734375 37.5 45.316406 C 37.5 45.6875 37.292969 45.964844 36.855469 46.1875 C 36.175781 46.527344 34.449219 46.382812 33.859375 45.9375 C 33.640625 45.773438 33.425781 45.402344 33.425781 45.179688 C 33.425781 44.992188 33.433594 44.992188 33.914062 44.992188 C 34.382812 44.992188 34.402344 45 34.457031 45.191406 C 34.539062 45.457031 34.828125 45.660156 35.261719 45.742188 C 35.6875 45.820312 36.023438 45.773438 36.304688 45.597656 C 36.703125 45.339844 36.449219 45.03125 35.707031 44.863281 C 35.109375 44.734375 34.355469 44.445312 34.15625 44.277344 C 33.476562 43.691406 33.941406 42.917969 35.054688 42.761719 C 35.226562 42.738281 35.398438 42.71875 35.425781 42.714844 C 35.453125 42.714844 35.714844 42.738281 36.015625 42.773438 Z M 42.980469 42.992188 C 43.007812 43.144531 43.023438 43.28125 43.007812 43.292969 C 42.988281 43.304688 42.453125 43.355469 41.800781 43.410156 C 41.160156 43.472656 40.617188 43.527344 40.597656 43.542969 C 40.578125 43.546875 40.597656 43.734375 40.632812 43.941406 L 40.699219 44.332031 L 41.222656 44.289062 C 41.523438 44.269531 42 44.234375 42.292969 44.214844 L 42.824219 44.171875 L 42.890625 44.429688 C 42.925781 44.574219 42.933594 44.710938 42.90625 44.726562 C 42.878906 44.742188 42.417969 44.796875 41.882812 44.84375 C 41.351562 44.894531 40.898438 44.945312 40.871094 44.964844 C 40.84375 44.976562 40.878906 45.296875 40.941406 45.671875 C 41.003906 46.050781 41.03125 46.371094 41.015625 46.390625 C 40.988281 46.402344 40.761719 46.433594 40.507812 46.457031 L 40.054688 46.496094 L 39.992188 46.222656 C 39.855469 45.574219 39.429688 43.046875 39.457031 43.023438 C 39.476562 43.003906 41.902344 42.78125 42.808594 42.714844 C 42.871094 42.714844 42.945312 42.835938 42.980469 42.992188 Z M 42.980469 42.992188 "/>
<path style=" stroke:none;fill-rule:nonzero;fill:rgb(0%,0%,0%);fill-opacity:1;" d="M 30.21875 9.964844 C 30.074219 10.773438 30.054688 11.207031 30.179688 11.175781 C 30.246094 11.15625 30.570312 11.09375 30.914062 11.03125 C 31.25 10.96875 31.523438 10.902344 31.523438 10.878906 C 31.523438 10.828125 30.351562 9.703125 30.300781 9.703125 C 30.28125 9.703125 30.246094 9.820312 30.21875 9.964844 Z M 30.21875 9.964844 "/>
<path style=" stroke:none;fill-rule:nonzero;fill:rgb(0%,0%,0%);fill-opacity:1;" d="M 50.925781 11.636719 L 50.179688 12.152344 L 50.859375 12.375 C 51.230469 12.503906 51.550781 12.582031 51.566406 12.558594 C 51.621094 12.503906 51.75 11.125 51.703125 11.125 C 51.683594 11.125 51.339844 11.355469 50.925781 11.636719 Z M 50.925781 11.636719 "/>
<path style=" stroke:none;fill-rule:nonzero;fill:rgb(0%,0%,0%);fill-opacity:1;" d="M 23.34375 11.472656 C 22.851562 11.6875 22.574219 11.839844 22.617188 11.886719 C 22.644531 11.929688 22.835938 12.121094 23.023438 12.316406 L 23.378906 12.671875 L 24.140625 12.316406 C 24.554688 12.125 24.945312 11.902344 25.007812 11.828125 C 25.226562 11.546875 24.855469 11.125 24.394531 11.125 C 24.238281 11.125 23.8125 11.265625 23.34375 11.472656 Z M 23.34375 11.472656 "/>
<path style=" stroke:none;fill-rule:nonzero;fill:rgb(0%,0%,0%);fill-opacity:1;" d="M 57.4375 14.964844 L 56.132812 15.890625 L 56.621094 16.230469 C 56.882812 16.414062 57.273438 16.605469 57.480469 16.664062 C 57.835938 16.753906 57.878906 16.753906 58.269531 16.636719 C 58.769531 16.488281 59.65625 15.890625 59.882812 15.550781 C 60.074219 15.257812 60.101562 15.066406 59.953125 14.875 C 59.847656 14.734375 58.875 14.03125 58.785156 14.03125 C 58.757812 14.03125 58.152344 14.449219 57.4375 14.964844 Z M 57.4375 14.964844 "/>
<path style=" stroke:none;fill-rule:nonzero;fill:rgb(0%,0%,0%);fill-opacity:1;" d="M 36.695312 14.40625 C 29.59375 14.914062 23.585938 18.144531 21.257812 22.726562 C 20.117188 24.945312 19.945312 27.527344 20.789062 29.777344 C 21.042969 30.464844 21.503906 31.402344 21.710938 31.644531 C 21.855469 31.816406 21.855469 31.824219 21.476562 31.011719 C 21.324219 30.679688 21.085938 30.054688 20.949219 29.621094 C 20.714844 28.875 20.707031 28.746094 20.707031 27.195312 C 20.707031 25.636719 20.714844 25.511719 20.949219 24.753906 C 21.550781 22.84375 22.652344 21.148438 24.300781 19.636719 C 24.972656 19.015625 26.523438 17.921875 27.445312 17.410156 C 32.066406 14.859375 38.144531 13.980469 43.902344 15.019531 C 44.464844 15.125 45.136719 15.257812 45.378906 15.328125 C 46.003906 15.496094 46.078125 15.476562 45.488281 15.296875 C 44.25 14.90625 42.121094 14.535156 40.445312 14.402344 C 39.492188 14.328125 37.78125 14.332031 36.695312 14.40625 Z M 36.695312 14.40625 "/>
<path style=" stroke:none;fill-rule:nonzero;fill:rgb(0%,0%,0%);fill-opacity:1;" d="M 25.644531 23.230469 C 25.300781 23.691406 24.492188 23.980469 23.578125 23.980469 L 23.1875 23.980469 L 23.1875 25.339844 L 25.371094 25.339844 L 25.34375 28.585938 L 25.316406 31.828125 L 28.351562 31.828125 L 28.351562 22.992188 L 25.816406 22.992188 Z M 25.644531 23.230469 "/>
<path style=" stroke:none;fill-rule:nonzero;fill:rgb(0%,0%,0%);fill-opacity:1;" d="M 32.15625 23.070312 C 31.015625 23.25 30.109375 23.757812 29.699219 24.445312 C 29.492188 24.808594 29.492188 24.859375 29.457031 27.25 C 29.421875 29.800781 29.476562 30.277344 29.800781 30.722656 C 30.417969 31.539062 32.09375 31.996094 33.894531 31.828125 C 35.21875 31.707031 36.175781 31.285156 36.601562 30.636719 L 36.820312 30.316406 L 36.820312 27.503906 C 36.820312 24.4375 36.8125 24.40625 36.296875 23.882812 C 35.960938 23.535156 35.472656 23.289062 34.828125 23.144531 C 34.230469 23.011719 32.800781 22.972656 32.15625 23.070312 Z M 33.714844 24.519531 C 33.867188 24.609375 33.875 24.789062 33.875 27.441406 C 33.875 30.582031 33.914062 30.390625 33.25 30.453125 C 32.953125 30.480469 32.851562 30.457031 32.664062 30.328125 L 32.425781 30.167969 L 32.425781 27.421875 C 32.425781 25.328125 32.453125 24.660156 32.546875 24.585938 C 32.835938 24.339844 33.371094 24.300781 33.714844 24.519531 Z M 33.714844 24.519531 "/>
<path style=" stroke:none;fill-rule:nonzero;fill:rgb(0%,0%,0%);fill-opacity:1;" d="M 40.488281 23.089844 C 39.746094 23.195312 38.996094 23.511719 38.570312 23.894531 C 37.917969 24.476562 37.917969 24.457031 37.878906 27.328125 C 37.84375 30.191406 37.878906 30.414062 38.40625 30.933594 C 39.09375 31.613281 40.671875 31.984375 42.246094 31.835938 C 43.640625 31.699219 44.511719 31.328125 44.992188 30.667969 L 45.246094 30.316406 L 45.246094 27.472656 C 45.246094 24.671875 45.246094 24.621094 45.046875 24.289062 C 44.765625 23.820312 44.402344 23.542969 43.777344 23.320312 C 42.890625 22.996094 41.683594 22.910156 40.488281 23.089844 Z M 42.136719 24.519531 C 42.292969 24.609375 42.300781 24.789062 42.300781 27.402344 C 42.300781 28.9375 42.265625 30.222656 42.226562 30.257812 C 42.011719 30.488281 41.441406 30.523438 41.085938 30.339844 L 40.851562 30.214844 L 40.851562 27.464844 C 40.851562 25.636719 40.886719 24.671875 40.949219 24.59375 C 41.140625 24.339844 41.785156 24.300781 42.136719 24.519531 Z M 42.136719 24.519531 "/>
<path style=" stroke:none;fill-rule:nonzero;fill:rgb(0%,0%,0%);fill-opacity:1;" d="M 47.519531 23.078125 C 47.328125 23.128906 47.046875 23.246094 46.902344 23.34375 C 46.414062 23.652344 46.375 23.78125 46.375 25.328125 C 46.375 26.6875 46.386719 26.753906 46.585938 27.007812 C 46.894531 27.402344 47.382812 27.566406 48.269531 27.566406 C 49.09375 27.566406 49.65625 27.402344 49.972656 27.078125 C 50.171875 26.871094 50.179688 26.824219 50.179688 25.316406 C 50.179688 23.824219 50.171875 23.75 49.972656 23.523438 C 49.855469 23.378906 49.628906 23.226562 49.410156 23.152344 C 48.957031 22.992188 48.007812 22.953125 47.519531 23.078125 Z M 48.625 25.257812 C 48.640625 26.707031 48.640625 26.753906 48.460938 26.824219 C 48.332031 26.871094 48.226562 26.871094 48.097656 26.824219 C 47.925781 26.761719 47.917969 26.695312 47.917969 25.320312 C 47.917969 23.777344 47.933594 23.707031 48.371094 23.746094 L 48.597656 23.765625 Z M 48.625 25.257812 "/>
<path style=" stroke:none;fill-rule:nonzero;fill:rgb(0%,0%,0%);fill-opacity:1;" d="M 53.160156 23.527344 C 52.980469 23.792969 51.628906 25.753906 50.144531 27.878906 C 48.667969 30.007812 47.464844 31.769531 47.464844 31.792969 C 47.464844 31.8125 47.789062 31.828125 48.199219 31.828125 L 48.921875 31.828125 L 49.464844 31.039062 C 50.832031 29.078125 54.402344 23.90625 54.675781 23.5 L 54.972656 23.054688 L 53.476562 23.054688 Z M 53.160156 23.527344 "/>
<path style=" stroke:none;fill-rule:nonzero;fill:rgb(0%,0%,0%);fill-opacity:1;" d="M 53.324219 27.347656 C 52.871094 27.453125 52.554688 27.65625 52.347656 27.964844 C 52.199219 28.183594 52.175781 28.386719 52.175781 29.585938 C 52.175781 30.40625 52.210938 31.027344 52.273438 31.132812 C 52.691406 31.898438 54.574219 32.132812 55.523438 31.546875 C 55.996094 31.253906 56.070312 30.984375 56.070312 29.574219 C 56.070312 28.226562 55.976562 27.863281 55.578125 27.589844 C 55.109375 27.269531 54.085938 27.15625 53.324219 27.347656 Z M 54.421875 29.535156 C 54.4375 31.074219 54.429688 31.144531 54.101562 31.148438 C 54.050781 31.148438 53.929688 31.105469 53.859375 31.050781 C 53.730469 30.96875 53.714844 30.746094 53.714844 29.546875 C 53.714844 28.046875 53.730469 27.972656 54.167969 28.011719 L 54.394531 28.027344 Z M 54.421875 29.535156 "/>
<path style=" stroke:none;fill-rule:nonzero;fill:rgb(0%,0%,0%);fill-opacity:1;" d="M 21.828125 31.859375 C 21.828125 31.890625 21.875 31.964844 21.921875 32.015625 C 21.964844 32.0625 22.011719 32.078125 22.011719 32.046875 C 22.011719 32.007812 21.964844 31.941406 21.921875 31.890625 C 21.875 31.839844 21.828125 31.824219 21.828125 31.859375 Z M 21.828125 31.859375 "/>
<path style=" stroke:none;fill-rule:nonzero;fill:rgb(0%,0%,0%);fill-opacity:1;" d="M 18.476562 14.933594 C 18.476562 14.976562 19.367188 16.125 19.449219 16.191406 C 19.484375 16.222656 20.460938 15.507812 20.472656 15.445312 C 20.472656 15.40625 19.699219 15.191406 18.640625 14.917969 C 18.550781 14.902344 18.476562 14.902344 18.476562 14.933594 Z M 18.476562 14.933594 "/>
<path style=" stroke:none;fill-rule:nonzero;fill:rgb(0%,0%,0%);fill-opacity:1;" d="M 60.714844 35.042969 C 60.371094 35.183594 60.054688 35.574219 60.054688 35.851562 C 60.054688 36.625 61.867188 37.304688 62.84375 36.898438 C 63.6875 36.546875 63.714844 35.742188 62.898438 35.320312 C 62.136719 34.925781 61.269531 34.816406 60.714844 35.042969 Z M 60.714844 35.042969 "/>
<path style=" stroke:none;fill-rule:nonzero;fill:rgb(0%,0%,0%);fill-opacity:1;" d="M 56.984375 38.863281 C 57.191406 39.226562 57.746094 40.050781 57.789062 40.050781 C 57.871094 40.050781 58.730469 39.4375 58.6875 39.40625 C 58.570312 39.332031 56.964844 38.8125 56.984375 38.863281 Z M 56.984375 38.863281 "/>
<path style=" stroke:none;fill-rule:nonzero;fill:rgb(0%,0%,0%);fill-opacity:1;" d="M 22.5625 40.09375 L 21.710938 40.378906 L 22.175781 40.671875 C 22.425781 40.839844 22.664062 40.976562 22.707031 40.976562 C 22.753906 40.976562 22.953125 40.710938 23.160156 40.390625 C 23.371094 40.066406 23.503906 39.800781 23.476562 39.808594 C 23.441406 39.808594 23.035156 39.9375 22.5625 40.09375 Z M 22.5625 40.09375 "/>
<path style=" stroke:none;fill-rule:nonzero;fill:rgb(0%,0%,0%);fill-opacity:1;" d="M 46.511719 43.640625 C 46.476562 43.980469 46.476562 44.277344 46.503906 44.296875 C 46.601562 44.363281 47.734375 44.105469 47.699219 44.023438 C 47.652344 43.941406 46.648438 43.015625 46.601562 43.015625 C 46.59375 43.015625 46.550781 43.292969 46.511719 43.640625 Z M 46.511719 43.640625 "/>
<path style=" stroke:none;fill-rule:nonzero;fill:rgb(0%,0%,0%);fill-opacity:1;" d="M 60.28125 9.949219 C 60.371094 10.019531 60.460938 10.074219 60.488281 10.074219 C 60.515625 10.074219 60.460938 10.019531 60.371094 9.949219 C 60.28125 9.882812 60.191406 9.828125 60.164062 9.828125 C 60.136719 9.828125 60.191406 9.882812 60.28125 9.949219 Z M 60.28125 9.949219 "/>
<path style=" stroke:none;fill-rule:nonzero;fill:rgb(0%,0%,0%);fill-opacity:1;" d="M 61.847656 10.902344 C 64.773438 12.84375 66.839844 14.757812 68.605469 17.183594 C 70.226562 19.40625 71.148438 21.410156 71.710938 23.917969 C 71.894531 24.753906 71.949219 25.253906 71.984375 26.648438 C 72.039062 28.542969 71.964844 29.375 71.59375 30.902344 C 69.410156 39.925781 59.195312 47.25 46.105469 49.160156 C 41.566406 49.820312 36.503906 49.828125 32.292969 49.164062 C 31.75 49.078125 31.1875 48.992188 31.050781 48.96875 L 30.796875 48.9375 L 30.796875 47.726562 L 29.875 47.527344 C 26.367188 46.785156 22.945312 45.542969 19.546875 43.78125 L 19.113281 43.558594 L 19.113281 44.277344 C 19.113281 44.671875 19.085938 44.992188 19.058594 44.992188 C 18.957031 44.992188 17.71875 44.308594 16.695312 43.691406 C 16.132812 43.34375 15.21875 42.71875 14.65625 42.300781 C 14.101562 41.878906 13.632812 41.53125 13.613281 41.53125 C 13.488281 41.53125 14.953125 42.652344 16.214844 43.515625 C 21.441406 47.09375 27.890625 49.265625 35.417969 49.976562 C 36.8125 50.105469 41.03125 50.160156 42.554688 50.066406 C 58.269531 49.097656 70.605469 40.878906 72.519531 30.097656 C 72.71875 29.011719 72.746094 26.285156 72.574219 25.246094 C 71.828125 20.796875 69.4375 16.835938 65.433594 13.410156 C 64.449219 12.570312 62.226562 11 61.140625 10.382812 C 60.816406 10.199219 61.132812 10.433594 61.847656 10.902344 Z M 61.847656 10.902344 "/>
<path style=" stroke:none;fill-rule:nonzero;fill:rgb(0%,0%,0%);fill-opacity:1;" d="M 9.273438 10.242188 C 9.300781 10.304688 9.511719 10.921875 9.738281 11.621094 C 10.191406 13.011719 10.21875 13.070312 10.289062 13.023438 C 10.363281 12.972656 9.402344 10.136719 9.300781 10.136719 C 9.265625 10.136719 9.25 10.183594 9.273438 10.242188 Z M 9.273438 10.242188 "/>
<path style=" stroke:none;fill-rule:nonzero;fill:rgb(0%,0%,0%);fill-opacity:1;" d="M 69.4375 10.242188 C 69.292969 10.59375 68.570312 12.84375 68.578125 12.949219 C 68.578125 13.015625 68.695312 12.738281 68.832031 12.328125 C 68.976562 11.921875 69.175781 11.367188 69.273438 11.09375 C 69.511719 10.480469 69.601562 10.136719 69.539062 10.136719 C 69.511719 10.136719 69.464844 10.183594 69.4375 10.242188 Z M 69.4375 10.242188 "/>
<path style=" stroke:none;fill-rule:nonzero;fill:rgb(0%,0%,0%);fill-opacity:1;" d="M 5.390625 14.085938 C 5.417969 14.152344 5.777344 14.757812 6.195312 15.433594 C 6.722656 16.285156 7 16.664062 7.109375 16.675781 C 7.191406 16.6875 7.253906 16.675781 7.238281 16.644531 C 6.601562 15.539062 5.5625 13.96875 5.460938 13.96875 C 5.371094 13.96875 5.351562 14.003906 5.390625 14.085938 Z M 5.390625 14.085938 "/>
<path style=" stroke:none;fill-rule:nonzero;fill:rgb(0%,0%,0%);fill-opacity:1;" d="M 73.105469 14.226562 C 72.148438 15.753906 71.640625 16.636719 71.683594 16.667969 C 71.785156 16.738281 71.875 16.621094 72.273438 15.953125 C 72.480469 15.597656 72.773438 15.15625 72.917969 14.964844 C 73.0625 14.769531 73.261719 14.46875 73.359375 14.289062 C 73.523438 14.015625 73.523438 13.96875 73.40625 13.96875 C 73.332031 13.96875 73.199219 14.085938 73.105469 14.226562 Z M 73.105469 14.226562 "/>
<path style=" stroke:none;fill-rule:nonzero;fill:rgb(0%,0%,0%);fill-opacity:1;" d="M 2.5 18.21875 C 2.425781 18.300781 4.699219 20.703125 4.855469 20.703125 C 4.917969 20.703125 4.992188 20.679688 5.027344 20.644531 C 5.101562 20.5625 2.863281 18.207031 2.691406 18.183594 C 2.617188 18.171875 2.527344 18.1875 2.5 18.21875 Z M 2.5 18.21875 "/>
<path style=" stroke:none;fill-rule:nonzero;fill:rgb(0%,0%,0%);fill-opacity:1;" d="M 74.890625 19.394531 C 73.839844 20.5 73.75 20.617188 73.894531 20.691406 C 74.023438 20.753906 74.058594 20.753906 74.085938 20.691406 C 74.121094 20.617188 75.019531 19.683594 76.050781 18.640625 C 76.257812 18.429688 76.402344 18.246094 76.386719 18.214844 C 76.242188 18.039062 75.960938 18.257812 74.890625 19.394531 Z M 74.890625 19.394531 "/>
<path style=" stroke:none;fill-rule:nonzero;fill:rgb(0%,0%,0%);fill-opacity:1;" d="M 0.789062 22.6875 C 0.644531 22.742188 0.726562 22.824219 1.46875 23.378906 C 1.929688 23.726562 2.625 24.234375 3.007812 24.503906 C 3.667969 24.976562 3.714844 24.992188 3.859375 24.894531 C 4.011719 24.789062 4.011719 24.777344 3.796875 24.617188 C 2.5 23.644531 1.113281 22.652344 1.042969 22.640625 C 0.996094 22.625 0.878906 22.652344 0.789062 22.6875 Z M 0.789062 22.6875 "/>
<path style=" stroke:none;fill-rule:nonzero;fill:rgb(0%,0%,0%);fill-opacity:1;" d="M 76.304688 23.675781 C 75.507812 24.257812 74.855469 24.757812 74.835938 24.785156 C 74.820312 24.816406 74.882812 24.863281 74.980469 24.902344 C 75.136719 24.957031 75.253906 24.894531 75.871094 24.425781 C 76.269531 24.132812 76.957031 23.644531 77.398438 23.34375 C 78.171875 22.824219 78.207031 22.792969 78.042969 22.707031 C 77.945312 22.65625 77.835938 22.621094 77.800781 22.621094 C 77.761719 22.621094 77.09375 23.097656 76.304688 23.675781 Z M 76.304688 23.675781 "/>
<path style=" stroke:none;fill-rule:nonzero;fill:rgb(0%,0%,0%);fill-opacity:1;" d="M 0.261719 27.316406 C 0.117188 27.398438 0.0820312 27.453125 0.144531 27.484375 C 0.191406 27.515625 0.5625 27.699219 0.960938 27.910156 C 1.351562 28.113281 1.773438 28.320312 1.882812 28.363281 C 2 28.40625 2.445312 28.621094 2.871094 28.851562 C 3.46875 29.164062 3.675781 29.238281 3.785156 29.191406 C 3.867188 29.160156 3.941406 29.105469 3.96875 29.0625 C 3.984375 29.011719 1.050781 27.417969 0.589844 27.242188 C 0.523438 27.210938 0.378906 27.242188 0.261719 27.316406 Z M 0.261719 27.316406 "/>
<path style=" stroke:none;fill-rule:nonzero;fill:rgb(0%,0%,0%);fill-opacity:1;" d="M 76.628906 28.066406 C 75.707031 28.542969 74.917969 28.957031 74.882812 28.980469 C 74.847656 29.003906 74.882812 29.085938 74.972656 29.160156 L 75.136719 29.289062 L 76.601562 28.535156 C 77.410156 28.121094 78.242188 27.699219 78.449219 27.601562 L 78.832031 27.429688 L 78.613281 27.3125 C 78.496094 27.25 78.378906 27.195312 78.351562 27.195312 C 78.324219 27.195312 77.554688 27.582031 76.628906 28.066406 Z M 76.628906 28.066406 "/>
<path style=" stroke:none;fill-rule:nonzero;fill:rgb(0%,0%,0%);fill-opacity:1;" d="M 0.824219 31.941406 L 0.644531 32.121094 L 2.734375 32.804688 C 4.664062 33.449219 4.835938 33.492188 4.945312 33.386719 C 5.007812 33.332031 5.0625 33.25 5.074219 33.21875 C 5.074219 33.171875 1.203125 31.769531 1.058594 31.769531 C 1.03125 31.769531 0.925781 31.847656 0.824219 31.941406 Z M 0.824219 31.941406 "/>
<path style=" stroke:none;fill-rule:nonzero;fill:rgb(0%,0%,0%);fill-opacity:1;" d="M 75.707031 32.464844 C 74.621094 32.847656 73.730469 33.171875 73.730469 33.1875 C 73.730469 33.207031 73.8125 33.289062 73.902344 33.367188 L 74.066406 33.511719 L 76.003906 32.835938 C 77.074219 32.460938 78.007812 32.144531 78.078125 32.125 C 78.1875 32.101562 78.171875 32.0625 78 31.929688 C 77.871094 31.839844 77.753906 31.769531 77.726562 31.773438 C 77.699219 31.773438 76.785156 32.089844 75.707031 32.464844 Z M 75.707031 32.464844 "/>
<path style=" stroke:none;fill-rule:nonzero;fill:rgb(0%,0%,0%);fill-opacity:1;" d="M 2.617188 36.382812 C 2.554688 36.484375 2.480469 36.574219 2.472656 36.59375 C 2.453125 36.613281 2.863281 36.710938 3.371094 36.816406 C 3.886719 36.921875 4.855469 37.121094 5.535156 37.261719 C 6.222656 37.402344 6.839844 37.515625 6.910156 37.515625 C 6.984375 37.515625 7.09375 37.433594 7.136719 37.328125 L 7.238281 37.144531 L 6.085938 36.902344 C 3.75 36.410156 2.835938 36.21875 2.789062 36.21875 C 2.773438 36.21875 2.691406 36.292969 2.617188 36.382812 Z M 2.617188 36.382812 "/>
<path style=" stroke:none;fill-rule:nonzero;fill:rgb(0%,0%,0%);fill-opacity:1;" d="M 73.785156 36.667969 C 72.644531 36.914062 71.695312 37.144531 71.675781 37.1875 C 71.65625 37.226562 71.695312 37.328125 71.757812 37.410156 L 71.875 37.558594 L 74.050781 37.09375 C 75.246094 36.847656 76.257812 36.621094 76.296875 36.589844 C 76.394531 36.527344 76.105469 36.21875 75.960938 36.222656 C 75.90625 36.222656 74.925781 36.425781 73.785156 36.667969 Z M 73.785156 36.667969 "/>
<path style=" stroke:none;fill-rule:nonzero;fill:rgb(0%,0%,0%);fill-opacity:1;" d="M 70.851562 40.582031 C 69.582031 40.691406 68.542969 40.792969 68.523438 40.804688 C 68.503906 40.816406 68.523438 40.921875 68.558594 41.039062 C 68.613281 41.222656 68.660156 41.253906 68.839844 41.242188 C 68.96875 41.230469 70.019531 41.144531 71.1875 41.039062 C 72.355469 40.9375 73.34375 40.851562 73.378906 40.851562 C 73.449219 40.851562 73.296875 40.480469 73.199219 40.414062 C 73.171875 40.394531 72.109375 40.46875 70.851562 40.582031 Z M 70.851562 40.582031 "/>
<path style=" stroke:none;fill-rule:nonzero;fill:rgb(0%,0%,0%);fill-opacity:1;" d="M 5.453125 40.617188 C 5.398438 40.730469 5.378906 40.835938 5.417969 40.859375 C 5.453125 40.878906 5.96875 40.933594 6.566406 40.976562 C 7.164062 41.011719 8.234375 41.101562 8.941406 41.15625 L 10.21875 41.261719 L 10.273438 41.042969 C 10.300781 40.925781 10.308594 40.820312 10.300781 40.808594 C 10.261719 40.792969 5.960938 40.421875 5.742188 40.421875 C 5.625 40.421875 5.523438 40.488281 5.453125 40.617188 Z M 5.453125 40.617188 "/>
<path style=" stroke:none;fill-rule:nonzero;fill:rgb(0%,0%,0%);fill-opacity:1;" d="M 13.316406 41.308594 C 13.316406 41.324219 13.386719 41.371094 13.476562 41.414062 C 13.613281 41.496094 13.625 41.488281 13.503906 41.390625 C 13.386719 41.292969 13.316406 41.261719 13.316406 41.308594 Z M 13.316406 41.308594 "/>
<path style=" stroke:none;fill-rule:nonzero;fill:rgb(0%,0%,0%);fill-opacity:1;" d="M 11.867188 44.117188 C 10.550781 44.160156 9.457031 44.207031 9.4375 44.222656 C 9.421875 44.234375 9.367188 44.34375 9.328125 44.476562 L 9.25 44.703125 L 10.398438 44.660156 C 11.03125 44.636719 12.15625 44.59375 12.890625 44.566406 C 13.625 44.535156 14.25 44.5 14.273438 44.480469 C 14.300781 44.460938 14.3125 44.355469 14.292969 44.246094 L 14.265625 44.035156 Z M 11.867188 44.117188 "/>
<path style=" stroke:none;fill-rule:nonzero;fill:rgb(0%,0%,0%);fill-opacity:1;" d="M 64.492188 44.246094 L 64.492188 44.488281 L 65.0625 44.523438 C 65.84375 44.574219 69.492188 44.691406 69.519531 44.671875 C 69.539062 44.660156 69.519531 44.542969 69.484375 44.40625 L 69.429688 44.160156 L 67.84375 44.117188 C 66.976562 44.097656 65.859375 44.0625 65.378906 44.042969 L 64.492188 44.003906 Z M 64.492188 44.246094 "/>
<path style=" stroke:none;fill-rule:nonzero;fill:rgb(0%,0%,0%);fill-opacity:1;" d="M 63.289062 46.550781 L 62.027344 47.050781 L 60.933594 46.886719 C 59.753906 46.710938 59.691406 46.71875 59.691406 47.039062 C 59.691406 47.164062 59.746094 47.210938 59.898438 47.238281 C 61.550781 47.515625 64.609375 47.960938 64.648438 47.9375 C 64.675781 47.917969 64.664062 47.484375 64.621094 46.976562 L 64.539062 46.058594 Z M 63.289062 46.550781 "/>
<path style=" stroke:none;fill-rule:nonzero;fill:rgb(0%,0%,0%);fill-opacity:1;" d="M 16.441406 47.152344 L 14.175781 47.503906 L 14.148438 47.769531 C 14.121094 47.996094 14.140625 48.027344 14.285156 47.996094 C 15.253906 47.800781 18.730469 47.273438 18.957031 47.300781 C 19.148438 47.316406 19.195312 47.300781 19.15625 47.238281 C 19.128906 47.1875 19.113281 47.0625 19.113281 46.964844 C 19.113281 46.816406 19.074219 46.785156 18.914062 46.792969 C 18.796875 46.792969 17.691406 46.953125 16.441406 47.152344 Z M 16.441406 47.152344 "/>
<path style=" stroke:none;fill-rule:nonzero;fill:rgb(0%,0%,0%);fill-opacity:1;" d="M 59.621094 47.464844 C 59.621094 47.582031 59.636719 47.632812 59.664062 47.570312 C 59.683594 47.515625 59.683594 47.417969 59.664062 47.355469 C 59.636719 47.300781 59.621094 47.347656 59.621094 47.464844 Z M 59.621094 47.464844 "/>
<path style=" stroke:none;fill-rule:nonzero;fill:rgb(0%,0%,0%);fill-opacity:1;" d="M 59.492188 47.898438 C 59.464844 48.027344 58.984375 48.246094 56.8125 49.109375 L 56.230469 49.339844 L 55.335938 49.085938 C 54.429688 48.832031 54.429688 48.832031 54.355469 48.96875 C 54.3125 49.042969 54.148438 49.382812 53.984375 49.722656 L 53.6875 50.339844 L 52.390625 50.839844 L 51.105469 51.347656 L 49.890625 50.828125 C 49.230469 50.542969 48.660156 50.308594 48.632812 50.308594 C 48.597656 50.308594 48.097656 50.9375 47.507812 51.710938 C 46.929688 52.492188 46.394531 53.160156 46.332031 53.207031 C 46.1875 53.3125 46.1875 53.320312 44.09375 52.003906 C 43.261719 51.476562 42.554688 51.050781 42.535156 51.050781 C 42.507812 51.050781 41.800781 51.664062 40.96875 52.410156 C 39.527344 53.707031 39.449219 53.769531 39.300781 53.664062 C 39.222656 53.601562 38.53125 52.996094 37.773438 52.316406 C 37.011719 51.636719 36.367188 51.082031 36.324219 51.082031 C 36.285156 51.082031 35.425781 51.605469 34.421875 52.242188 L 32.582031 53.40625 L 31.421875 51.871094 C 30.777344 51.03125 30.226562 50.347656 30.171875 50.351562 C 30.125 50.359375 29.167969 50.773438 28.042969 51.273438 C 26.910156 51.773438 25.96875 52.167969 25.949219 52.152344 C 25.925781 52.132812 25.578125 51.402344 25.179688 50.523438 C 24.78125 49.648438 24.4375 48.917969 24.421875 48.898438 C 24.394531 48.886719 23.351562 49.171875 22.09375 49.53125 C 20.84375 49.890625 19.78125 50.183594 19.746094 50.183594 C 19.710938 50.183594 19.636719 49.957031 19.59375 49.671875 L 19.5 49.164062 L 19.492188 49.597656 C 19.492188 49.992188 19.4375 50.125 18.859375 51.082031 C 18.515625 51.65625 17.375 53.578125 16.324219 55.347656 C 15.273438 57.113281 13.449219 60.183594 12.273438 62.175781 C 11.085938 64.164062 10.109375 65.828125 10.082031 65.867188 C 10.035156 65.945312 11.148438 65.648438 12.417969 65.246094 C 13.226562 64.988281 24.449219 61.753906 24.621094 61.730469 C 24.699219 61.71875 24.9375 62.027344 25.289062 62.609375 C 25.726562 63.324219 30.316406 70.746094 30.933594 71.722656 L 31.085938 71.972656 L 31.214844 71.785156 C 31.277344 71.679688 31.332031 71.5625 31.339844 71.519531 C 31.339844 71.476562 31.976562 70.363281 32.753906 69.046875 C 36.710938 62.359375 37.871094 60.421875 37.953125 60.347656 C 38.023438 60.296875 37.816406 59.882812 37.265625 58.957031 C 36.839844 58.226562 36.476562 57.625 36.457031 57.613281 C 36.429688 57.597656 36.257812 57.890625 32.5625 64.121094 C 31.132812 66.53125 29.910156 68.578125 29.847656 68.664062 L 29.726562 68.820312 L 29.539062 68.523438 C 29.429688 68.355469 29.347656 68.183594 29.347656 68.140625 C 29.347656 68.097656 30.632812 65.878906 32.210938 63.214844 C 33.777344 60.554688 35.273438 58.023438 35.523438 57.582031 L 35.996094 56.796875 L 34.925781 55 C 34.339844 54 33.886719 53.160156 33.921875 53.101562 C 33.949219 53.046875 34.003906 53.027344 34.050781 53.066406 C 34.09375 53.097656 34.601562 53.925781 35.191406 54.914062 C 35.769531 55.894531 37.363281 58.585938 38.722656 60.878906 C 41.8125 66.085938 48.023438 76.605469 48.605469 77.589844 C 48.941406 78.171875 49.050781 78.300781 49.113281 78.207031 C 49.148438 78.144531 50.363281 76.1875 51.8125 73.867188 C 53.261719 71.546875 54.609375 69.363281 54.820312 69.023438 C 55.027344 68.683594 55.246094 68.394531 55.308594 68.375 C 55.363281 68.363281 58 69.097656 61.148438 70.011719 C 69.085938 72.316406 70.207031 72.640625 70.234375 72.613281 C 70.246094 72.601562 69.230469 70.867188 67.980469 68.757812 C 66.730469 66.648438 64.65625 63.144531 63.371094 60.96875 C 62.082031 58.792969 60.117188 55.476562 59.003906 53.597656 C 57.890625 51.722656 56.976562 50.171875 56.976562 50.15625 C 56.976562 50.082031 57.273438 50.140625 58.089844 50.371094 C 58.558594 50.507812 58.984375 50.617188 59.03125 50.617188 C 59.113281 50.617188 59.648438 47.84375 59.566406 47.792969 C 59.546875 47.773438 59.511719 47.824219 59.492188 47.898438 Z M 23.371094 49.726562 C 23.371094 49.800781 15.027344 63.867188 14.855469 64.085938 C 14.773438 64.191406 13.976562 64.4375 13.894531 64.386719 C 13.875 64.371094 15 62.410156 16.402344 60.035156 C 19.636719 54.546875 22.136719 50.328125 22.28125 50.109375 C 22.410156 49.933594 23.371094 49.59375 23.371094 49.726562 Z M 55.824219 53.558594 C 60.21875 60.953125 66.140625 71.027344 66.105469 71.050781 C 66.078125 71.0625 65.851562 71 65.578125 70.902344 L 65.101562 70.734375 L 60.941406 63.71875 C 58.648438 59.863281 56.058594 55.480469 55.171875 53.980469 L 53.558594 51.253906 L 53.742188 50.839844 C 53.867188 50.570312 53.949219 50.453125 53.996094 50.507812 C 54.03125 50.554688 54.855469 51.929688 55.824219 53.558594 Z M 36.984375 52.167969 C 37.761719 52.867188 37.492188 52.429688 46.648438 67.949219 L 50.660156 74.746094 L 50.5 75.074219 C 50.40625 75.257812 50.308594 75.421875 50.273438 75.433594 C 50.246094 75.445312 49.265625 73.851562 48.105469 71.890625 C 38.667969 56 36.230469 51.855469 36.230469 51.664062 C 36.230469 51.53125 36.402344 51.644531 36.984375 52.167969 Z M 36.984375 52.167969 "/>
<path style=" stroke:none;fill-rule:nonzero;fill:rgb(0%,0%,0%);fill-opacity:1;" d="M 19.402344 48.886719 C 19.402344 49.003906 19.421875 49.054688 19.449219 48.992188 C 19.464844 48.9375 19.464844 48.839844 19.449219 48.777344 C 19.421875 48.71875 19.402344 48.769531 19.402344 48.886719 Z M 19.402344 48.886719 "/>
</g>
</svg>
